<mxfile host="65bd71144e">
    <diagram id="bC6ZrQp_wsxkDfaxdbNI" name="Page-1">
        <mxGraphModel dx="1696" dy="607" grid="1" gridSize="10" guides="1" tooltips="1" connect="1" arrows="1" fold="1" page="1" pageScale="1" pageWidth="850" pageHeight="1100" math="0" shadow="0">
            <root>
                <mxCell id="0"/>
                <mxCell id="1" parent="0"/>
                <mxCell id="3" value="" style="shape=table;html=1;whiteSpace=wrap;startSize=0;container=1;collapsible=0;childLayout=tableLayout;" parent="1" vertex="1">
                    <mxGeometry x="-210" y="350" width="190" height="80" as="geometry"/>
                </mxCell>
                <mxCell id="12" value="" style="shape=tableRow;horizontal=0;startSize=0;swimlaneHead=0;swimlaneBody=0;top=0;left=0;bottom=0;right=0;collapsible=0;dropTarget=0;fillColor=none;points=[[0,0.5],[1,0.5]];portConstraint=eastwest;" parent="3" vertex="1">
                    <mxGeometry width="190" height="80" as="geometry"/>
                </mxCell>
                <mxCell id="13" value="A" style="shape=partialRectangle;html=1;whiteSpace=wrap;connectable=0;fillColor=none;top=0;left=0;bottom=0;right=0;overflow=hidden;" parent="12" vertex="1">
                    <mxGeometry width="63" height="80" as="geometry">
                        <mxRectangle width="63" height="80" as="alternateBounds"/>
                    </mxGeometry>
                </mxCell>
                <mxCell id="14" value="B" style="shape=partialRectangle;html=1;whiteSpace=wrap;connectable=0;fillColor=none;top=0;left=0;bottom=0;right=0;overflow=hidden;" parent="12" vertex="1">
                    <mxGeometry x="63" width="64" height="80" as="geometry">
                        <mxRectangle width="64" height="80" as="alternateBounds"/>
                    </mxGeometry>
                </mxCell>
                <mxCell id="15" value="C" style="shape=partialRectangle;html=1;whiteSpace=wrap;connectable=0;fillColor=none;top=0;left=0;bottom=0;right=0;overflow=hidden;pointerEvents=1;" parent="12" vertex="1">
                    <mxGeometry x="127" width="63" height="80" as="geometry">
                        <mxRectangle width="63" height="80" as="alternateBounds"/>
                    </mxGeometry>
                </mxCell>
                <mxCell id="17" value="" style="shape=table;html=1;whiteSpace=wrap;startSize=0;container=1;collapsible=0;childLayout=tableLayout;" parent="1" vertex="1">
                    <mxGeometry x="-20" y="350" width="190" height="80" as="geometry"/>
                </mxCell>
                <mxCell id="18" value="" style="shape=tableRow;horizontal=0;startSize=0;swimlaneHead=0;swimlaneBody=0;top=0;left=0;bottom=0;right=0;collapsible=0;dropTarget=0;fillColor=none;points=[[0,0.5],[1,0.5]];portConstraint=eastwest;" parent="17" vertex="1">
                    <mxGeometry width="190" height="80" as="geometry"/>
                </mxCell>
                <mxCell id="19" value="D" style="shape=partialRectangle;html=1;whiteSpace=wrap;connectable=0;fillColor=none;top=0;left=0;bottom=0;right=0;overflow=hidden;" parent="18" vertex="1">
                    <mxGeometry width="63" height="80" as="geometry">
                        <mxRectangle width="63" height="80" as="alternateBounds"/>
                    </mxGeometry>
                </mxCell>
                <mxCell id="20" value="E" style="shape=partialRectangle;html=1;whiteSpace=wrap;connectable=0;fillColor=none;top=0;left=0;bottom=0;right=0;overflow=hidden;" parent="18" vertex="1">
                    <mxGeometry x="63" width="64" height="80" as="geometry">
                        <mxRectangle width="64" height="80" as="alternateBounds"/>
                    </mxGeometry>
                </mxCell>
                <mxCell id="21" value="F" style="shape=partialRectangle;html=1;whiteSpace=wrap;connectable=0;fillColor=none;top=0;left=0;bottom=0;right=0;overflow=hidden;pointerEvents=1;" parent="18" vertex="1">
                    <mxGeometry x="127" width="63" height="80" as="geometry">
                        <mxRectangle width="63" height="80" as="alternateBounds"/>
                    </mxGeometry>
                </mxCell>
                <mxCell id="22" value="" style="shape=table;html=1;whiteSpace=wrap;startSize=0;container=1;collapsible=0;childLayout=tableLayout;" parent="1" vertex="1">
                    <mxGeometry x="170" y="350" width="190" height="80" as="geometry"/>
                </mxCell>
                <mxCell id="23" value="" style="shape=tableRow;horizontal=0;startSize=0;swimlaneHead=0;swimlaneBody=0;top=0;left=0;bottom=0;right=0;collapsible=0;dropTarget=0;fillColor=none;points=[[0,0.5],[1,0.5]];portConstraint=eastwest;" parent="22" vertex="1">
                    <mxGeometry width="190" height="80" as="geometry"/>
                </mxCell>
                <mxCell id="24" value="G" style="shape=partialRectangle;html=1;whiteSpace=wrap;connectable=0;fillColor=none;top=0;left=0;bottom=0;right=0;overflow=hidden;" parent="23" vertex="1">
                    <mxGeometry width="63" height="80" as="geometry">
                        <mxRectangle width="63" height="80" as="alternateBounds"/>
                    </mxGeometry>
                </mxCell>
                <mxCell id="25" value="\" style="shape=partialRectangle;html=1;whiteSpace=wrap;connectable=0;fillColor=none;top=0;left=0;bottom=0;right=0;overflow=hidden;" parent="23" vertex="1">
                    <mxGeometry x="63" width="57" height="80" as="geometry">
                        <mxRectangle width="57" height="80" as="alternateBounds"/>
                    </mxGeometry>
                </mxCell>
                <mxCell id="26" value="\" style="shape=partialRectangle;html=1;whiteSpace=wrap;connectable=0;fillColor=none;top=0;left=0;bottom=0;right=0;overflow=hidden;pointerEvents=1;" parent="23" vertex="1">
                    <mxGeometry x="120" width="70" height="80" as="geometry">
                        <mxRectangle width="70" height="80" as="alternateBounds"/>
                    </mxGeometry>
                </mxCell>
                <mxCell id="28" value="" style="shape=table;html=1;whiteSpace=wrap;startSize=0;container=1;collapsible=0;childLayout=tableLayout;" parent="1" vertex="1">
                    <mxGeometry x="360" y="350" width="190" height="80" as="geometry"/>
                </mxCell>
                <mxCell id="29" value="" style="shape=tableRow;horizontal=0;startSize=0;swimlaneHead=0;swimlaneBody=0;top=0;left=0;bottom=0;right=0;collapsible=0;dropTarget=0;fillColor=none;points=[[0,0.5],[1,0.5]];portConstraint=eastwest;" parent="28" vertex="1">
                    <mxGeometry width="190" height="80" as="geometry"/>
                </mxCell>
                <mxCell id="30" value="H" style="shape=partialRectangle;html=1;whiteSpace=wrap;connectable=0;fillColor=none;top=0;left=0;bottom=0;right=0;overflow=hidden;" parent="29" vertex="1">
                    <mxGeometry width="63" height="80" as="geometry">
                        <mxRectangle width="63" height="80" as="alternateBounds"/>
                    </mxGeometry>
                </mxCell>
                <mxCell id="31" value="K" style="shape=partialRectangle;html=1;whiteSpace=wrap;connectable=0;fillColor=none;top=0;left=0;bottom=0;right=0;overflow=hidden;" parent="29" vertex="1">
                    <mxGeometry x="63" width="57" height="80" as="geometry">
                        <mxRectangle width="57" height="80" as="alternateBounds"/>
                    </mxGeometry>
                </mxCell>
                <mxCell id="32" value="\" style="shape=partialRectangle;html=1;whiteSpace=wrap;connectable=0;fillColor=none;top=0;left=0;bottom=0;right=0;overflow=hidden;pointerEvents=1;" parent="29" vertex="1">
                    <mxGeometry x="120" width="70" height="80" as="geometry">
                        <mxRectangle width="70" height="80" as="alternateBounds"/>
                    </mxGeometry>
                </mxCell>
                <mxCell id="33" value="" style="shape=table;html=1;whiteSpace=wrap;startSize=0;container=1;collapsible=0;childLayout=tableLayout;" parent="1" vertex="1">
                    <mxGeometry x="540" y="350" width="190" height="80" as="geometry"/>
                </mxCell>
                <mxCell id="34" value="" style="shape=tableRow;horizontal=0;startSize=0;swimlaneHead=0;swimlaneBody=0;top=0;left=0;bottom=0;right=0;collapsible=0;dropTarget=0;fillColor=none;points=[[0,0.5],[1,0.5]];portConstraint=eastwest;" parent="33" vertex="1">
                    <mxGeometry width="190" height="80" as="geometry"/>
                </mxCell>
                <mxCell id="35" value="\" style="shape=partialRectangle;html=1;whiteSpace=wrap;connectable=0;fillColor=none;top=0;left=0;bottom=0;right=0;overflow=hidden;" parent="34" vertex="1">
                    <mxGeometry width="63" height="80" as="geometry">
                        <mxRectangle width="63" height="80" as="alternateBounds"/>
                    </mxGeometry>
                </mxCell>
                <mxCell id="36" value="M" style="shape=partialRectangle;html=1;whiteSpace=wrap;connectable=0;fillColor=none;top=0;left=0;bottom=0;right=0;overflow=hidden;" parent="34" vertex="1">
                    <mxGeometry x="63" width="57" height="80" as="geometry">
                        <mxRectangle width="57" height="80" as="alternateBounds"/>
                    </mxGeometry>
                </mxCell>
                <mxCell id="37" value="N" style="shape=partialRectangle;html=1;whiteSpace=wrap;connectable=0;fillColor=none;top=0;left=0;bottom=0;right=0;overflow=hidden;pointerEvents=1;" parent="34" vertex="1">
                    <mxGeometry x="120" width="70" height="80" as="geometry">
                        <mxRectangle width="70" height="80" as="alternateBounds"/>
                    </mxGeometry>
                </mxCell>
            </root>
        </mxGraphModel>
    </diagram>
</mxfile>